HIERARCHY
ROOT Hips
{
	OFFSET 0.000000 1.471914 24.280096
	CHANNELS 6 Xposition Yposition Zposition Xrotation Yrotation Zrotation
	JOINT Spine
	{
		OFFSET 0.000000 0.900110 1.860670
		CHANNELS 6 Xposition Yposition Zposition Xrotation Yrotation Zrotation
		JOINT Spine1
		{
			OFFSET 0.000000 0.400320 2.270309
			CHANNELS 6 Xposition Yposition Zposition Xrotation Yrotation Zrotation
			JOINT Spine2
			{
				OFFSET 0.000000 0.200920 2.296560
				CHANNELS 6 Xposition Yposition Zposition Xrotation Yrotation Zrotation
				JOINT Spine3
				{
					OFFSET 0.000000 0.000000 2.305330
					CHANNELS 6 Xposition Yposition Zposition Xrotation Yrotation Zrotation
					JOINT Neck
					{
						OFFSET 0.000000 -0.864490 6.051487
						CHANNELS 6 Xposition Yposition Zposition Xrotation Yrotation Zrotation
						JOINT Head
						{
							OFFSET 0.000000 -0.550429 3.121674
							CHANNELS 6 Xposition Yposition Zposition Xrotation Yrotation Zrotation
							End Site
							{
								OFFSET 0.000000 0.000000 3.731750
							}
						}
					}
					JOINT RightShoulder
					{
						OFFSET -0.788280 -1.313800 4.256718
						CHANNELS 6 Xposition Yposition Zposition Xrotation Yrotation Zrotation
						JOINT RightArm
						{
							OFFSET -3.915130 0.000000 0.000000
							CHANNELS 6 Xposition Yposition Zposition Xrotation Yrotation Zrotation
							JOINT RightForeArm
							{
								OFFSET -6.914910 0.000000 0.000000
								CHANNELS 6 Xposition Yposition Zposition Xrotation Yrotation Zrotation
								JOINT RightHand
								{
									OFFSET -6.096219 0.000000 0.000000
									CHANNELS 6 Xposition Yposition Zposition Xrotation Yrotation Zrotation
									JOINT RightHandEnd
									{
										OFFSET -1.749950 0.000000 0.000000
										CHANNELS 6 Xposition Yposition Zposition Xrotation Yrotation Zrotation
										End Site
										{
											OFFSET -1.749950 0.000000 0.000000
										}
									}
									JOINT RightHandThumb1
									{
										OFFSET -0.699980 -1.166630 -0.466648
										CHANNELS 6 Xposition Yposition Zposition Xrotation Yrotation Zrotation
										End Site
										{
											OFFSET -1.690319 -0.452920 0.000000
										}
									}
								}
							}
						}
					}
					JOINT LeftShoulder
					{
						OFFSET 0.788280 -1.313800 4.256718
						CHANNELS 6 Xposition Yposition Zposition Xrotation Yrotation Zrotation
						JOINT LeftArm
						{
							OFFSET 3.915130 0.000000 0.000000
							CHANNELS 6 Xposition Yposition Zposition Xrotation Yrotation Zrotation
							JOINT LeftForeArm
							{
								OFFSET 6.914910 0.000000 0.000000
								CHANNELS 6 Xposition Yposition Zposition Xrotation Yrotation Zrotation
								JOINT LeftHand
								{
									OFFSET 6.096219 0.000000 0.000000
									CHANNELS 6 Xposition Yposition Zposition Xrotation Yrotation Zrotation
									JOINT LeftHandEnd
									{
										OFFSET 1.749950 0.000000 0.000000
										CHANNELS 6 Xposition Yposition Zposition Xrotation Yrotation Zrotation
										End Site
										{
											OFFSET 1.749950 0.000000 0.000000
										}
									}
									JOINT LeftHandThumb1
									{
										OFFSET 0.699980 -1.166630 -0.466648
										CHANNELS 6 Xposition Yposition Zposition Xrotation Yrotation Zrotation
										End Site
										{
											OFFSET 1.690319 -0.452920 0.000000
										}
									}
								}
							}
						}
					}
				}
			}
		}
	}
	JOINT RightUpLeg
	{
		OFFSET -2.338570 -0.252550 -0.551512
		CHANNELS 6 Xposition Yposition Zposition Xrotation Yrotation Zrotation
		JOINT RightLeg
		{
			OFFSET 0.000000 0.000000 -10.744959
			CHANNELS 6 Xposition Yposition Zposition Xrotation Yrotation Zrotation
			JOINT RightFoot
			{
				OFFSET 0.000000 -0.000001 -10.930849
				CHANNELS 6 Xposition Yposition Zposition Xrotation Yrotation Zrotation
				JOINT RightToeBase
				{
					OFFSET 0.000000 -4.087269 -1.487650
					CHANNELS 6 Xposition Yposition Zposition Xrotation Yrotation Zrotation
					End Site
					{
						OFFSET 0.000000 -1.891870 0.000000
					}
				}
			}
		}
	}
	JOINT LeftUpLeg
	{
		OFFSET 2.338570 -0.252550 -0.551512
		CHANNELS 6 Xposition Yposition Zposition Xrotation Yrotation Zrotation
		JOINT LeftLeg
		{
			OFFSET 0.000000 0.000000 -10.744959
			CHANNELS 6 Xposition Yposition Zposition Xrotation Yrotation Zrotation
			JOINT LeftFoot
			{
				OFFSET 0.000000 -0.000001 -10.930849
				CHANNELS 6 Xposition Yposition Zposition Xrotation Yrotation Zrotation
				JOINT LeftToeBase
				{
					OFFSET 0.000000 -4.087269 -1.487650
					CHANNELS 6 Xposition Yposition Zposition Xrotation Yrotation Zrotation
					End Site
					{
						OFFSET 0.000000 -1.891870 0.000000
					}
				}
			}
		}
	}
}
MOTION
Frames: 6
Frame Time: 0.041667
0.000119 26.900785 32.886654 -7.964817 -11.012936 67.118193 -0.000009 0.900094 1.860663 24.555891 -6.966870 1.943315 0.000012 0.400281 2.270336 0.000004 -0.000002 0.000010 0.000015 0.200883 2.296555 0.000001 -0.000001 0.000001 0.000017 0.000026 2.305318 -0.000020 -0.000007 5.624518 -0.000022 -0.864445 6.051428 -11.584714 -0.281828 -177.982272 0.000039 -0.550415 3.121677 -0.000009 -0.000002 -0.000006 -0.788278 -1.313728 4.256846 174.688782 63.419659 -32.219963 -3.915096 -0.000018 -0.000008 -0.000001 -0.000007 0.000001 -6.914852 0.000013 0.000014 0.000012 0.000024 -64.413137 -6.096195 0.000031 0.000025 -0.000032 -0.000002 -0.000071 -1.749892 -0.000042 0.000020 -0.000000 -0.000001 -0.000000 -0.699967 -1.166623 -0.466635 -0.000030 -0.000008 -0.000034 0.788252 -1.313749 4.256777 -142.780501 -69.440716 56.082857 3.915228 0.000004 -0.000038 0.000006 0.000005 0.000000 6.914954 -0.000070 0.000001 -0.000001 0.000012 54.033326 6.096265 0.000176 -0.000033 0.000023 0.000001 -0.000002 1.749993 0.000005 0.000079 -0.000008 -0.000011 -0.000005 0.699981 -1.166608 -0.466635 0.000021 -0.000005 -0.000031 -2.338595 -0.252541 -0.551479 -59.707444 -9.019725 -4.076635 0.000022 -0.000021 -10.744951 74.724660 -1.816498 -6.413488 -0.000040 0.000078 -10.930844 0.000005 -0.000006 0.000003 -0.000015 -4.087231 -1.487624 0.000003 0.000001 0.000001 2.338575 -0.252539 -0.551509 -57.283212 10.719447 -4.025603 -0.000003 -0.000010 -10.744927 85.376354 -13.340220 13.466252 0.000008 0.000012 -10.930867 -0.000012 0.000003 0.000012 -0.000045 -4.087193 -1.487647 0.000003 -0.000000 -0.000002 
0.000119 26.900787 32.886650 -7.938982 -10.933569 67.177533 -0.000007 0.900091 1.860665 24.452226 -7.034778 1.943090 0.000010 0.400279 2.270330 0.000003 -0.000000 0.000014 0.000014 0.200883 2.296547 0.000001 -0.000001 0.000002 0.000016 0.000026 2.305310 -0.000020 -0.000004 5.707231 -0.000024 -0.864447 6.051422 -11.645554 -0.146972 -177.786669 0.000037 -0.550416 3.121677 -0.000009 -0.000002 -0.000006 -0.788273 -1.313728 4.256848 174.346070 63.464192 -31.806074 -3.915099 -0.000016 -0.000005 -0.000001 -0.000008 -0.000000 -6.914852 0.000011 0.000015 0.000011 0.000026 -64.338401 -6.096196 0.000031 0.000032 -0.000032 0.000001 -0.000068 -1.749897 -0.000035 0.000016 0.000002 0.000001 -0.000000 -0.699968 -1.166615 -0.466635 -0.000026 -0.000007 -0.000034 0.788252 -1.313749 4.256777 -142.634895 -69.599313 56.291100 3.915228 0.000001 -0.000038 0.000000 0.000006 0.000001 6.914954 -0.000072 0.000005 -0.000001 0.000011 53.678569 6.096265 0.000168 -0.000040 0.000024 0.000007 -0.000002 1.749993 0.000008 0.000065 -0.000006 -0.000008 -0.000009 0.699980 -1.166608 -0.466647 0.000019 -0.000003 -0.000030 -2.338594 -0.252544 -0.551481 -59.830456 -9.008084 -4.097202 0.000021 -0.000023 -10.744949 74.672737 -1.745659 -6.399816 -0.000039 0.000078 -10.930846 0.000005 -0.000005 0.000000 -0.000013 -4.087231 -1.487625 -0.000000 0.000001 -0.000000 2.338578 -0.252540 -0.551508 -57.402365 10.704009 -4.046227 -0.000004 -0.000008 -10.744930 85.505253 -13.359843 13.456871 0.000007 0.000011 -10.930865 -0.000010 0.000004 0.000012 -0.000043 -4.087192 -1.487650 0.000003 0.000002 -0.000001 
0.000119 26.900787 32.886658 -7.948210 -10.988594 67.098563 -0.000011 0.900093 1.860664 24.539750 -7.054627 1.975848 0.000010 0.400279 2.270336 0.000003 -0.000001 0.000016 0.000015 0.200883 2.296555 0.000000 0.000001 0.000003 0.000015 0.000025 2.305314 -0.000023 -0.000003 5.702971 -0.000023 -0.864445 6.051423 -11.633654 -0.173063 -177.424914 0.000038 -0.550413 3.121670 -0.000010 -0.000002 -0.000005 -0.788270 -1.313725 4.256853 174.133077 63.513588 -31.622577 -3.915095 -0.000012 -0.000012 -0.000000 -0.000008 0.000003 -6.914859 0.000011 0.000018 0.000012 0.000026 -64.231338 -6.096192 0.000033 0.000023 -0.000034 0.000000 -0.000070 -1.749892 -0.000037 0.000011 0.000000 0.000001 -0.000001 -0.699963 -1.166617 -0.466635 -0.000026 -0.000007 -0.000034 0.788257 -1.313747 4.256781 -143.022344 -69.899118 56.083742 3.915227 0.000002 -0.000038 0.000001 0.000008 0.000002 6.914956 -0.000072 0.000013 0.000005 0.000012 53.828789 6.096267 0.000171 -0.000034 0.000027 0.000003 0.000004 1.749989 0.000004 0.000079 -0.000004 -0.000006 -0.000005 0.699978 -1.166610 -0.466632 0.000022 0.000002 -0.000029 -2.338598 -0.252544 -0.551478 -59.810464 -9.024290 -4.151318 0.000019 -0.000028 -10.744950 74.775688 -1.610978 -6.384922 -0.000040 0.000078 -10.930839 0.000007 -0.000005 0.000001 -0.000012 -4.087231 -1.487625 0.000003 0.000001 0.000001 2.338575 -0.252537 -0.551508 -57.319480 10.681432 -4.097571 -0.000009 -0.000011 -10.744931 85.481259 -13.135161 13.462089 0.000006 0.000009 -10.930862 -0.000012 0.000002 0.000011 -0.000043 -4.087192 -1.487647 0.000003 -0.000001 0.000000 
0.000119 26.900785 32.886658 -8.024926 -10.939531 67.100803 -0.000012 0.900092 1.860667 24.463516 -7.187476 1.986601 0.000010 0.400282 2.270338 0.000004 -0.000000 0.000012 0.000014 0.200883 2.296551 0.000002 -0.000000 0.000002 0.000014 0.000024 2.305310 -0.000023 -0.000006 5.554118 -0.000024 -0.864445 6.051435 -11.557724 -0.087734 -177.095740 0.000038 -0.550416 3.121673 -0.000008 -0.000002 -0.000006 -0.788278 -1.313727 4.256856 174.061142 63.646865 -31.759946 -3.915103 -0.000014 -0.000012 -0.000003 -0.000007 0.000001 -6.914851 0.000011 0.000015 0.000009 0.000024 -63.977016 -6.096195 0.000035 0.000023 -0.000032 -0.000001 -0.000073 -1.749896 -0.000039 0.000016 0.000002 0.000001 -0.000000 -0.699970 -1.166614 -0.466638 -0.000028 -0.000009 -0.000033 0.788252 -1.313748 4.256788 -142.202640 -69.314898 56.964915 3.915225 0.000002 -0.000042 0.000002 0.000008 0.000001 6.914953 -0.000071 0.000001 -0.000003 0.000015 54.722523 6.096269 0.000171 -0.000036 0.000026 0.000003 -0.000003 1.749986 0.000008 0.000067 -0.000003 -0.000007 0.000001 0.699977 -1.166610 -0.466640 0.000024 -0.000001 -0.000028 -2.338597 -0.252544 -0.551474 -59.756765 -9.039516 -4.183439 0.000020 -0.000026 -10.744949 74.643941 -1.648900 -6.372652 -0.000039 0.000081 -10.930842 0.000007 -0.000004 0.000001 -0.000012 -4.087229 -1.487627 0.000003 -0.000000 0.000002 2.338575 -0.252539 -0.551507 -57.114028 10.683942 -4.122735 -0.000005 -0.000011 -10.744930 85.251013 -13.252852 13.499143 0.000007 0.000011 -10.930866 -0.000012 0.000004 0.000013 -0.000042 -4.087192 -1.487645 0.000002 0.000002 -0.000001 
0.000118 26.900785 32.886658 -8.034404 -11.065357 66.970080 -0.000011 0.900090 1.860668 24.586239 -7.123818 1.989642 0.000004 0.400281 2.270338 0.000004 -0.000000 0.000015 0.000014 0.200883 2.296553 0.000001 -0.000001 0.000000 0.000018 0.000027 2.305310 -0.000024 -0.000006 5.595901 -0.000024 -0.864445 6.051429 -11.281979 -0.101808 -177.627484 0.000036 -0.550419 3.121681 -0.000008 -0.000002 -0.000005 -0.788278 -1.313726 4.256850 174.100361 63.650410 -32.076389 -3.915097 -0.000013 -0.000016 -0.000002 -0.000007 0.000005 -6.914854 0.000009 0.000018 0.000011 0.000026 -64.233285 -6.096191 0.000033 0.000025 -0.000028 -0.000002 -0.000070 -1.749892 -0.000041 0.000016 -0.000001 0.000002 -0.000002 -0.699965 -1.166621 -0.466634 -0.000026 -0.000008 -0.000035 0.788252 -1.313748 4.256777 -141.597499 -68.873620 57.647801 3.915220 0.000004 -0.000046 0.000004 0.000006 0.000001 6.914952 -0.000074 0.000016 -0.000007 0.000014 55.045540 6.096264 0.000171 -0.000036 0.000024 0.000005 -0.000003 1.749986 0.000007 0.000072 -0.000006 -0.000009 -0.000007 0.699977 -1.166609 -0.466636 0.000019 -0.000002 -0.000030 -2.338597 -0.252544 -0.551476 -59.646847 -9.147028 -4.166640 0.000018 -0.000027 -10.744948 74.751154 -1.696130 -6.479688 -0.000038 0.000077 -10.930842 0.000005 -0.000005 0.000002 -0.000014 -4.087230 -1.487624 0.000004 0.000001 0.000002 2.338576 -0.252539 -0.551502 -57.017794 10.614982 -4.104148 -0.000003 -0.000007 -10.744928 85.241123 -13.065227 13.418870 0.000006 0.000012 -10.930868 -0.000010 0.000003 0.000010 -0.000042 -4.087195 -1.487646 0.000001 0.000002 -0.000002 
0.000119 26.900785 32.886658 -8.086001 -11.076025 66.856808 -0.000010 0.900090 1.860668 24.582758 -7.127573 1.976523 0.000011 0.400281 2.270340 0.000003 -0.000001 0.000012 0.000013 0.200884 2.296555 0.000002 -0.000000 0.000003 0.000015 0.000026 2.305306 -0.000022 -0.000006 5.692580 -0.000025 -0.864444 6.051428 -11.263112 -0.060323 -177.474761 0.000037 -0.550416 3.121677 -0.000009 -0.000002 -0.000006 -0.788275 -1.313726 4.256855 174.729353 63.552779 -32.969958 -3.915097 -0.000015 -0.000005 -0.000001 -0.000007 0.000004 -6.914855 0.000010 0.000022 0.000012 0.000023 -63.793721 -6.096196 0.000029 0.000024 -0.000034 -0.000005 -0.000068 -1.749894 -0.000031 0.000011 0.000002 0.000005 -0.000001 -0.699964 -1.166618 -0.466638 -0.000025 -0.000006 -0.000031 0.788250 -1.313748 4.256781 -141.423097 -68.900086 57.759706 3.915224 0.000001 -0.000042 0.000001 0.000007 0.000001 6.914953 -0.000071 0.000008 -0.000005 0.000011 54.755113 6.096263 0.000171 -0.000045 0.000023 0.000006 -0.000000 1.749990 0.000008 0.000071 -0.000006 -0.000010 -0.000004 0.699977 -1.166610 -0.466639 0.000019 -0.000002 -0.000027 -2.338598 -0.252545 -0.551478 -59.515502 -9.174178 -4.134402 0.000021 -0.000025 -10.744949 74.625752 -1.720624 -6.508655 -0.000040 0.000078 -10.930846 0.000003 -0.000006 0.000002 -0.000013 -4.087231 -1.487627 0.000005 0.000001 0.000001 2.338572 -0.252540 -0.551505 -56.984596 10.481892 -4.073381 -0.000004 -0.000009 -10.744931 85.030056 -12.988570 13.260048 0.000009 0.000012 -10.930865 -0.000012 0.000005 0.000009 -0.000043 -4.087193 -1.487645 0.000003 -0.000003 0.000001 
